<mxfile host="65bd71144e">
    <diagram id="oBcgxvdMgKjNdoFS42xy" name="第 1 页">
        <mxGraphModel dx="622" dy="498" grid="1" gridSize="10" guides="1" tooltips="1" connect="1" arrows="1" fold="1" page="1" pageScale="1" pageWidth="1600" pageHeight="900" math="0" shadow="0">
            <root>
                <mxCell id="0"/>
                <mxCell id="1" parent="0"/>
                <mxCell id="2" value="" style="shape=image;verticalLabelPosition=bottom;labelBackgroundColor=#ffffff;verticalAlign=top;aspect=fixed;imageAspect=0;image=data:image/png,iVBORw0KGgoAAAANSUhEUgAAAigAAAFuCAYAAACr5ONpAAAgAElEQVR4Ae2d2a8Vxfr+f//TuT533pwbExMTL4gxgUQTjYFgjCFoiGAkKDgSEY/igKA4ISIOccCJ4IBixKNR0RM56nHAWTnqUfuXz/p+n/6+u3b3Wt21evVae+/nTdau3t01PlVd9fRbb1X9v8IyEQSeeeaZ4q9//Wvxl7/8pfZ39OjRiaTtSI2AETACRsAILHQE/t9CL8As5/+nn34qICH33XdfsX79+mL58uXFmWeeWZxxxhnFWWedVbz77ruznH3nzQgYASNgBIzA1BAwQZka9E7YCBgBI2AEjIARqEPABKUOGd83AkbACBgBI2AEpoaACcrUoHfCRsAIGAEjYASMQB0CJih1yPi+ETACRsAIGAEjMDUETFCmBr0TNgJGwAgYASNgBOoQMEGpQeajjz4qrr322nm/l156qSaEbxuB6SDw559/Fj/88EPxxx9/ZGWA8DmSGy4nrd9//704depUTlCHMQJGYIEiYIJSU3Evvvhi5f4lN954Y02IubfpvP/9738Pfr/++uvchx39t3///uLcc88d/L799tvKWG+77bbB8wsuuGDw/P777y/DKOwo97zzzityw/33v/8dpHvFFVfMS5d4161bV/z9738v3nrrrcr8D7vJgHzJJZcM4r3llltqvZ44caK46qqritWrVw9+77zzTq3fLh70kd4HH3xQbN26dbBcPe61w/L1O+64o/jPf/4ztCiHDx8uLrvssuJvf/vboJ1TF9TDpMINzcyQhw888EBB29WeQizT37hxY/HFF1/MC9XkfeCdvPDCCwdt5vzzzy+++uqrefH4hhEwArOBgAlKTT18+eWXxRNPPFH+1EE2JShff/11SXCef/75mlTGu82grMGpqsMm9ksvvbT0w//XXHNN+b/CNnFzw/3yyy+DQjJwjkrnoosuKn788cfGoKDNUpxVmq3333+/WLt2belHfiGfk5C+0mP/HJWlzoV41A2+tOu6cAzadZqK3HA5WEM+N2/eXJtPyvfxxx/PiXrU+wAe7EGksrOZosUIGIHZRcAEpWHdnH766YOObaETlNdee62488475/xuuummstNmM7n0+V133VXkhkM1j4ignHbaaQNtDBqZnTt3Djaw04CBe/nllzeskWKw8R1h+KpOpxuopxhvvJ4EQekzvUhQ0CY8+uijxZtvvlk899xzxYoVK8pyoxVJp33+8Y9/lM8Z5B9//PFB3aLJEkZoVlLJDZfG0/R/2ofyc/bZZw/KduzYsWLbtm3lfd7JWL5hBOW7774r2yDxHjhwoGlW7M8IGIEpIWCC0hD4xUJQqorL9JAGg6YEjHjahBNBYbBJ5V//+lepwicf//znP1Mv8/5nQFaeGWRTYeqH52i+mOZ68sknS/+TICh9pvfpp58WDMZV03oQwnPOOacsa6plgNAIt7iTMQO96ojnady54dJ6afq/8gKhPXny5JxgkQxCnCV1BAWtHO1O5Yb8WIyAEZh9BMYmKKhJmftVZ8cc7759+wbz29gdPPTQQ5Xz2j///HPx7LPPFtu3bx/YEVx33XWDrxq2hx8mTGXw5U2HefHFFxekwdw5W8rL3iGGR/WPalr5i8+4fuqppwbPsRsYJk0Iyttvvz3AAjx2795ddoibNm0q7/OMH19040pdhxzjTad44jNdtyEaCoPbJpwGnCqCQly7du0q8aJdjBLsSRhw0AJU1TsGznfffXdBO0NefvnlMv5JEJS+0xuGD+1LgzHtW4J9ie6vWrVKtwdu1MrgJw7iueHmJNDin5iX66+/fl7Izz//vCxH1PZUvQ/kHRsrlRttoMUIGIGFgcDYBIUBgpcf1SsGbeoIoov6OApGihrwoz+uuf/ee+9F7+U1ZCf1H/+ng0pFc84QoCpR+D179lQ9Lu8pv8M0DFdfffXQ/CktXMjMuFLVIadxLhSCcujQoRI7COgwwUBUWHLOUROZNEFJ89B3ejH9xx57rMTn4MGD5SNIfBVuELxly5aVz/CDPZAkN5zCt3WpU+UTY94q0XuNhkWSvg8Yp2MQq7j4GLIYASOwcBDojKCkc99oOPSVyyApiV9HdBxoFyAHW7ZsKTsS1PKpijkOSnRKGzZsGHzl3X777QMNDHHdfPPNSqZ01ZH1QVD4Moeo8Ytkhc5e9+VihDuuxA4ZfFhqmv7QMqmDrkuvjSYkxtEm3CgNysMPP1zms2rKJqYrewnayahVJwrXN2HoOz2VE5d3SnUe2xnaTt2HdEjuvffewX3eKxFxpokkueEUvq3LO6J8Mv1XJZpSw5/sj+L7wDRY9IOGy2IEjMDCQqAzgkJHQefGQBmFDvKFF14Y3KIjEZFhcGGvkSjHjx8vOyYIThRIjDot7A9SYeqHVRSp9ElQYtp9r+IRNsPcmL943YZo5IYbRlBYNaJ6Iv9103Gk/dlnn5Xt4NZbb43ZGXrdN2HoOz0VHpsTtYFIMngeDU/1njIlK/+8pyzp5X80o5LccArf1mXaVnlKP1QUFx8o8qPp0khQ1M/gB+2QSIzC2zUCRmD2EeiUoMSvsqqiHzlypOxU6qzo9dUDgYmdyg033FCGreu0qtLUwNeHBiWmb4IS0fi/VTyQWAgmPwZx1Pn6amcwYWDRyp+5MfzPf1HTpoGpyl96r2/C0Hd6lJepmmggmxobxwEcOw5EWk7eOyQuy9b7lxtuEGHGH+xjRD5+++23yhh4n+VH5Yz51DO5VR81lRH7phEwAjODQGcEha+UURK/xNCQMCWjKQ+5K1euLDueqN7du3dveZ9pC5Y9VhlHpnlYKgSFuXq+itOfvojpqOukTw2KBowql6/2Tz75pC6bc4xy26rs+yYMfacHaJHE33PPPfNwZGM34Y5mE/sU/udjQHumaPqM+yKKueHmZaDhjWg3ojykQeO+PHUEhWXWKi8kuG5/lzRu/28EjMBsINAZQYl2JnVFG7bxkjqS6MavHlb3yCA3+mFjKbQxdWRlqRCUphu1VdXNNAkKe5jwFQ95rftaVp5ZraW6Z2qijfRNGPpOL64aW79+/Rzto3CKfti5F5sT8GTVnUTai2h8mhtOcbZ1I0nCpqpK+MBRWxC5ihoU2hR9Qmwz2IVZjIARWDgIdEZQhq1uERxxRQmd4qgf0yRRGEghOepY1UHh8oX0+uuvR++DaxOUuTvJzgOo5XLhGL4NsRlmgxLjrLtmuTBf+tR1m83cFF/fhKHP9CDoehc0MKvc0Y07weq9QMugqRz8slEfcVFfktxwCt/WjZqgOiK6Zs2assz6OIkEReEgvZBg4RP3TWmbL/s3AkagXwQ6IyhM0YwSpnTUUYxzPg2bSqHWZU8DdbTEi4YlVQmrc6qaEoj7O3SxzDiWv28blIWiQanbByViV3WtlSbU84cffljlZei9toSBQZu2pF/csXRoQv/7sG16TeKs8sMxCnqnsN8ZtqrplVdeKf0qTNz/hzKL/DPVKskNp/BtXfavUf7qzmgSkYK0SiJBie8DS/oVH31Em+MUFLddI2AE+kegV4ISv/TSFTzjFF2GfnRCLC+MIqPBdC8W/MQVD6MIijQAMiaMaVRdf/PNN2WnOKkzP+o65JifqLWK9+N1G01Ibjjhl0NQ+ArWwEld50hbwhC/4mlXbfPdNr2cMr366qtlG8MGbNTAi92JBmpcDhWMgv2SnmN3IskNp/Bt3bgnzo4dO+YFp5zKpw7BxNOw9yHWJ6uELEbACMw+Ar0SFIxe1bGwTHCYSG07zI+e0dEq3tTIUquC0KSkwhboCjeKoGg/kXR1URqn/ufLW3GP2nhMYdq6wzpkxbUYCEoktnVf1CpvnduWMMRVItRjEyPwmHbb9GLYJtecS6P2RduGZDaRaICqlTwKF/cfSbVUueEUdxuXd1+EFNzTvoCzh1R2pp8kw94HNEtxtVjV4ZKKx64RMAKzgUCvBIUixy8ZBgFtRc4zpn1YjYKhXqrxwGofUoO6VnPmqN3Z+0SdWRV5iEZyGGIihGfPB3VyuKMICqsi5J+8kS5aEn516n9NP5E/DH6Hqd8HGWv5Z1iHrKgWOkEBW+HIFEYbgcyw9J0fJFH1x1e57jPQV0kOQRknvao81N1D8yd7HMrExnbYX1X92DcmClvfCwe0DxiYQqbjZmxV2qLccDHtNtdx5RDvPQQMohKJHxjEd2rU+xC3OeCd/P7779tkyX6NgBHoGYHeCQrqWU27qKPkyyZ+3XA/nrEBJqxMkH9cpgxiJ829uBpBOKbqacIoHB2x4hxFUNIvMIXD1aZXSlNu/NKL/rlmu/9xZVSHTPwLnaBEItn2qzfFvO7/qnrIISh18af3q9Jrc+/pp58u220ad/p/ahvGIM+7lfrT/7wbVRse5oZrU67olz1u4vup/EU3buNP2CbvQ1z9k/YxMX1fGwEjMH0EOiMoVdvM1xWPzu7OO+8siULsdLhmOgXDvCicL4K6N/XL/5AbpgHqhIFNpETh+RqPthfSrtTFwX06TeavUzKVqsMVB5oavkw5rExaHqXfBUGJ2iGIWJXEwajqOfcol/IVbQ/q/Ot+m3Cqu6qvc8VX5YrMQkilOavyV3VPZRrm0i6qJGr6CN8k38PS0bO69KryUHePwxQV3yi36r1EY1K15B+Mh9mG5YarK8eo+2hXNUUby8n7V7Uap8n7wAdSfBfRyFiMgBGYTQTGJijjFIsBh4GVzgZCwsqcqLKtiptBka3QIR2obLFrgfCMEuIlHB1S3d4Ko+Lw834ReOONN8qBONoa9JuLxZsa7w3aEt69NtMdueFykSQ9vbtNbW1y03I4I2AEZgeBqRKU2YHBOZlFBLSrMEtDm5DQWSyD82QEjIARMAJ5CJig5OHmUD0ggG0PU2Hp0vEeknYSRsAIGAEjMGUETFCmXAFO3ggYASNgBIyAEZiPgAnKfEx8xwgYASNgBIyAEZgyAiYoU64AJ28EjIARMAJGwAjMR8AEZT4mvmMEjIARMAJGwAhMGQETlClXgJM3AkbACBgBI2AE5iNggjIfE98xAkbACBgBI2AEpoxA5wTlp59+8p4VU65UJ28EZgWBvXv3FhzKycnLsyzsoHvttdfO+7U9XmGWy+i8GYGFhkAnBIWDxDjzJW4Bz+ZaV199de05NX0Dxa61//73vwc/DiWcVZl0PtnSn6332/zOO+88k86GDWbS9dcwGyO9dZlPDnRkS3raFOfhRNFBj5xtlCNd5nNY+i+++GK5a3HcVv/GG28cFszPjIARmCACYxGU3377rdi0aVPli62X/KKLLppg9ptH/fXXX5f5fP7555sH7NnnpPPJqdCqmzbuL7/80jMSCzO5SddfV6h0mU+0DGpLqcZhXILSZT6HYceRGxynoJ/O7jJBGYaanxmBySIwFkGJB3lxmNojjzwyONuDs3Vuv/32wQF9JijtKnDSHTJ1w0GN8XfTTTeVA8zy5cvnPMPfXXfdVXBQnGU0ApOuv9E5aOajy3zSZiAoZ5555rwDHRcKQUlRkzbYBCVFxv8bgf4QyCYobEGur6bzzz+/4OTRVDjYa1a0FV12yGk5u/x/GvmMpzq7Qx6vNqdRfzk57iqfb775ZtkPPP744/OyYoIyDxLfMAJGoCEC2QQFzYgICicKtxXCPPTQQ4MponXr1hU7duwoDh06NO8LTPFCdPbv3z84m4WpJU4l3rZt22Dum2PWP/zwQ3kt3bfffnsQhnC7d+8u88u0FPfij1OSqwTixfH227dvH6TFXPqBAwcKjIGrZFr5rMpL03tNCQo4gBmn39YJNgPgg79jx46V3p5++unBPU7PZXBE23b55ZcXGzduHNyvw18RtK0HhcPeiPzol05ByN84bt/tjLYPvpSp7hDFt956a+AHfzq9u4t8pjitXr168F7VHegYCcqk39vnnntuUGZORed9X7t2bbFz586CtvXVV18NtLpr1qwZuKNOTbcGJa1p/28E+kcgi6BwNLvICQaUbYWOVeFTlw6varBSR7d58+bi4osvrgwPwYmCkW4af93/dN6poCVSR5WG4/57772XBimmkc95mWh5oylBwRAaHJifr+vg4xc1JERy2mmnDcJCRqsw5R4DS5Xk1IPiYWCKdbds2TI96sztu51Fg86bb755XjlOnDhRlhntpqbnxs1nmhCHOQrb++67L308+L/P90FpKU9yMd6l3vU/LtPTw0Rt1BrFYSj5mRGYLAJZBIWvYL3sd9xxR6scRoM6Brrrr79+sAwRoqM46VRTSTufVatWDcJp0CQsflhRIKEjR8vCL3bOaH90Xy5GclHefffdMj/EjdZlz549xZYtW8r75J/BPUrf+Yxp5143JSjYr6iOWLlVJWhE5CdqmURQ9Iw64Ot2/fr1pX/8pCuscutBeeuDoEyjnfHeCEvqRQJ+GozBk/JLxsmn4oguZJM8DCOsfb4PMS3a1VlnnVViRD7RqJxzzjnlPWmWYpl0bYIiJOwagekhkEVQ4hccKuSmgvofY1p1anzpSSAWV155Zdl5HD16VI8Gbux8MNyMwlekOmu+tqukzZw7+VyxYkWZT/ZIiHL8+PEyPQbkKH3mM6Y7znVTgkIdqeO+8MIL5yWJVoXBirqgLqNEgoJRbhQ0Laq/qHUZpx4Ufx8ERWnh9tXOmC7RYAu233zzzSAbTEEKy0hcYh7b5jMNy/+fffZZmc6tt95a5WVwr8/3QWmp7UVNL2QKoY02wUft3BqU2qr1AyMwcQSyCArqXL3k6bTKsBxHzUuVajoOJnwBRVHnQ2dM5xzlk08+KfNz8ODB+Ki8bjNwHDlypIyP6agq0QomBmQGUkmf+VSa47pNCQrpQA5V959//vmcpNGq6Bk2EFEiQYmaFfxAfLBhICwrQiTj1IPiiG2K+CcxxaO0cPtqZ6QFSRAhXLlyZRG1k+l+JDGPbfOZhuX/qEmsmpJVmD7fB6WFplMifNDWSUQ+6voK/MmPCYpQs2sE+kcgi6Dcfffd5UA0zGAyLc4LL7xQhqvTdDBfzECCBiOKOh/sT1KBsGhgZOfKKmkzcLCZmeJDQwKZ0lSQXAYE+YlGwn3mk2kSpsaa/m644YYqaAbTVCrLqA6ZqTD5ZSl5FLQqPAODVERQmJqrEmyLCMuAIhmnHhQH5JE865dOyclfV25f7Uz5xShb9SGX9lBnPKtwbfKpMHIjoWX31WHS5/ugtKIWTkTjgQceKLPJcmiwGqb9VbhR70MZqS+MgBHoHIEsghK/lNnYqKlEzUtq86E4ZFPCgBZFnQ8DWZWoc45fT9Ffmw5Zg6XiHOViGCrpM5/6OhyVPz2vsu0h33HAadIhawUXnbi0R1988UU5UN5zzz2Co3RFUNIpMXmA7CifMsAdpx4Ub99uX+0slituvkebiHYn0V+8bpPPGI5rVs2prtideZj0+T4ordgnVZERTTNH0pKWwQQlRcT/G4H+EcgiKCwfVQfFcr6mwpkcCldnoBaNLGO86nzqtsxWvF0QFJEk4ty3b9/IH529pM98Uta44dqo6zrD1rYEJU4lyFaIzdxUB7KHECa4IigYd1bJrl27yvAaYMeph6o0+rjXZuDvqnxoxoQ9OMf2WFfmNvmMcbDcW8SYZeKjpM/3QWk9+eSTZbZEUB599NHynglKCYUvjMBMI5BFUKKan062qaBSVUcaDWRjeH2d09lEUefTB0GJRrfpqpKYp6rrPvNZlX7OvbYEhekDEY4NGzYMklS565Zvyr+MFdN8ss+M2oamJ8aphzT+vv5vM/B3Ub5IFoXfBRdcUC4trit3m3zGOO69996ynqr2Hop+uVa76OO9VVomKGkt+H8jsDARyCIoqPX1ZUKniLV8E4nLVOlYq0SdDDYeUXQ/t6Pjq14d+DPPPBOjnncd92lJV/DM85zc6DOfSdLZ/7YlKCSEEabwxA5J14cPH67MhwgKX69VwhJQ4sBYVjJOPSiOU6dOzbEfGqbWV5hx3L7aGXlkekXaDGy22MlV9TBsZQ1h2+RTeGDrpXpkv6Im0uf7oLS6IChaolxHuJuU3X6MgBEYD4EsgkKS0Q6lzlAOIhM1JXFFRdWLz8oPdbAYo0ZR55NLUNisSnFHi/6Yhq4xepVfaQj0LHX1ta/7feZTaY7r5hCUTz/9tMRIWDF4aVOwNE8a2PCbbsj2448/lnHFdjFOPSj92OZIe9KrePpqZ7Q7nYEDSZEtyBVXXFFiOWyZcZt8CstIGNNVWvKTun2+D0qrC4KizSDBVnZWadn8vxEwApNFIJug0MGpQ6Djx3YEMsLLjJEjhqOsJmDKJkrc6wS7A22sRlgZphGf7BAUVmnlEhTiURwMluRPxphKI7pxXp8041lDTPugKWBFSjploTT6ymfMc+51DkEhLaYSqCv9hi1tjQQFknDy5MlBdqkDcFQc6cCXWw/Com+CQrpqA5NsZ3GjtrhcFjxj+ul7JFza5pP3VPGmK+xinOm1wvTxPiitLggKht5qk7zjbJGA1omf+qy0rP7fCBiBbhHIJihkg/1HpArVyyyVs/5PCQp7N8TBCv+RmBAuXb5KWup8xunoMJRTvlI3XfbMV702wpJf8pnm9bLLLptTI33nc07imf/kEhSmyoQNbtSWpVmJda4wwkr/R+2JwufWg8JPg6BMup3F5fpVq6LiFvSs3Eq1fMKmTT5jmnXTs4o3uqrjPt5bpdUFQYHope+62in4WoyAEZg8AmMRFLLHi4xWJCUmvMzYqVStHOHrWXtm6KXHJQ4OlasS2bzU7eWheNg7o07Q7jCostdKOmCmBIU46NhZGVNVNtJDDZzuAzONfNaVt+l9NtoSflu3bm0abLAtvcKN+qoW3hiGcmyAwsllmrBuIM2pBxWCtqY0cOtsYOS/C3eS7QwyqfZIW+P9q5K4h0zdlGabfIqs80FCuKbS5/sgghL7HH1AxQ0XVRYOKx0mvBdMmaVEpYlx8LB4/cwIGIFmCIxNUGIy7CzK1AdLT9GUjBKmTTikjzDMobfp+EbF3eVz8sXKJeb0ISTYUNQNDF2mO+txxYMB4wBQlW8RFE0Dgd8bb7wxOPG4KZaLvR5mtXzUk0he3GOkqp59zwgYASPQFQKdEpSuMuV4FgYCTMkwcPFFP4pkpARlYZTQuQQB7ZrMCqs6LZeRMgJGwAh0jYAJSteILvL4WFLO0utovFo37RahMEGJaCysa2wumAJl5ZbFCBgBI9AXAiYofSG9SNKRql8uNgbDDotTsU1QhIRdI2AEjIARaIKACUoTlOynREDEBMNBDAibbKtOYJ1WzDkuFiNgBIyAETACoxAwQRmFkJ8bASNgBIyAETACvSNggtI75E7QCBgBI2AEjIARGIWACcoohPzcCBgBI2AEjIAR6B0BE5TeIXeCRsAIGAEjYASMwCgETFBGITTjzzmd97bbbiuOHDky4zl19oyAETACRsAINEegNUHhoDwOiWO7eDbqqtu46Ycffij9pefVNM/e//lkt1nSbPL74osv/i/gIr/SNtxttqhf5JC4eEbACBgBI7AIEGhNUCjzrbfeWm59XXeexTXXXFP6qTtfpw1+jzzySBmflrrWuWxFv1TEBGWp1LTLaQSMgBFYWghkEZRffvmlPF2Ybc7ZXTRKPE119erV8VH2dSQoHE7IIX51vzQ/2YkugIAmKAugkpxFI2AEjIARaI1AFkEhlVdffbXUaGzZsqVMmAPPzjvvvPIZBwh2IZGgvPXWW11EuSjiMEFZFNXoQhgBI2AEjECCQDZBIZ5LL720JCLHjx8fRM1R55p64cj3rmRcgvKvf/2rYDpq06ZNxbp164odO3YUhw4dGnmCcm44bHU44Ve/l156qSso5sQTCcq3335bPProo8WGDRsKtEz79u0butMrZ6vs3bu3uO6664o1a9YU69evL3bt2lW8/PLLxR9//DEnnfSfZ555pti/f3/x7rvvDh5xGjXpYW/EDrNgPeoAwTRO/28EjIARMAJGQAiMRVC++uqrwUm2EJLzzz+/+PnnnwudubJ8+fLi999/Vzpju+MQFEiCSFPqMgVVd5ZMbjgKCzYxrWXLlo2NQVUEIigQA13HdKmP999/f15QjGqjv/SaE2zrcCEybV2/bdu2gpVEaXj+hwhajIARMAJGwAjkIDAWQSFBtCQanM4666zyWhqVnExVhYkE5YUXXii++eabyh+aiyhoLpQ/7GWuv/76wbLcOA0FuUolN5zi6ZugqIyrVq0qdu7cOdCi6B7lhjxG2bhx4wAXDvtDq7R79+7Bj5VZCkd9MmVXJSIoK1asKP2DKfFC+ogDDZvFCBgBI2AEjEAOAmMTFLQkZ599djlIMTBt3749Jy9Dw0SCogG0yo2rihhclTcG6RMnTpRpMIXBNIjiOHr0aPksN1wZwRQ0KJQD8hXl8ccfL8t3zz33xEfFwYMHB3unVBGQqBF57bXX5oTTPyIopIvmBsPoKF9++WUBkbQYASNgBIyAEchBYGyCQqIMRBrocSdhe5BDUJjaUL5uvvnmefhELQf2F5LccAqPG+MmD5Oe4iGNqtVLZ5xxxgADNCVNhVVawg3NSpVEghLJXZVf3zMCRsAIGAEj0BaBTggK0woa0HAfe+yxynxcdNFFgxU+TAU0+d1www1lPJGgED97nVT9fvzxxzJMJE7vvPNOeT9esPEbeWaqQpIbTuFx0UygRdAPA9ZJiOxO2DyvSsBQdVOlLQFDDJuZFrrxxhvLn8L8/e9/r4q2tEGZFPGqTNQ3jYARMAJGYMkgMDZBiat2NKhhmMlOsqkwzSI/TdxoGxIJStNlxvfdd1+ZHkShSrQSiTxLcsMpfJ+uCErUAMX0mdoR1tjtSNhtF8KoZ3VuleaJOKRBsZ2JELVrBIyAETACXSIwFkFhSkGrdphKiFMjmzdvnpfPPXv21G6uVrXpGuRHkkNQOKNGA28VYSJuGYviT5IbTuH7dEVQqvAmH9GImSXTCIbEss2h3GiR2B2YJccsHeYn3FilU05l3WAAACAASURBVCUiKGhdLEbACBgBI2AEukZgLIISjUxlTBm3uNceGV1kOoegxIE2GsjG/EiLAMGS5IZT+D5dEZS1a9dWJnv77beXZEO2QXGFEgaxqfz2229lmFEEpe55Gqf/NwJGwAgYASPQBoFsgoJhpL6y42GAaFU0lXPOOeeM3PCraWZzCAqkSXms2yhNRqTs+yHJDafwuKdOnSoYvPWrIgLRf+61CApLgqvk8ssvH2BAnUgiaanakC0eVVBHQKRBqXuutOwaASNgBIyAEchBIIugMEWggZ2BjxUrUeK0AruLdiE5BCWupGF/j1SwZRGBiQNtbrgYf4yDNCZlTCqCQhrpUl9IksoXz0TC8FX32U02FTZY0/OIS/RnghLR8LURMAJGwAh0jUAWQYkDXJVm4L///e8cAtPFCpYcggJYcRqKbdylMWDKJw7uKcnKDacKmgZBQYsiY2CmczR9Bdl44403lLXBHigiIGyL//XXXw+eUW8YxeoZrglKCZsvjIARMAJGoEcEWhMUlqVqAMPQsm47e865kT8G+3Ell6B89tlnpSEv+UHjE4kJ95jySCU3nOKZBkER3tJu6X+IShRsTOKuv/hjnxT5j89MUCJyvjYCRsAIGIG+EGhNUC688MJyIBtlBBv9ptMPbQvIIXgaQI8dO9Yq+MmTJ4uYF8UDWXn66adr48oNR4SEVTq4kLlJiMjWTTfdNNhJNqbJNat70IykwtROFSbsT4PGS1M4o5YZ1z1P0/P/RsAIGAEjYATaINCaoLSJfNb8ch7N22+/XRw+fLjg9N2qjcuq8pwbriquSd9jagcDZuxrtGpnWJrg8Oqrrzb2PywuPzMCRsAIGAEj0BUCS4qgdAWa4zECRsAIGAEjYAQmi4AJymTxdexGwAgYASNgBIxABgImKBmgOYgRMAJGwAgYASMwWQRMUCaLr2M3AkbACBgBI2AEMhAwQckAzUGMgBEwAkbACBiBySJggjJZfB27ETACRsAIGAEjkIGACUoGaA5iBIyAETACRsAITBYBE5TJ4uvYjYARMAJGwAgYgQwETFAyQHMQI2AEjIARMAJGYLIImKBMFl/HbgSMgBEwAkbACGQgYIKSAZqDGAEjYASMgBEwApNFwARlsvg6diNgBIyAETACRiADAROUDNAcxAgYASNgBIyAEZgsAmMRlE8//bTYu3dvcd111xVr1qwp1q9fX+zatat4+eWXiz/++KM257nhiPDXX38tDhw4UP5eeuml2nTGfZCbz77DjVtOhzcCRsAIGAEjMGsIZBOUrVu3Fn/5y19qfytXriy+++67eeXNDaeIvvrqqzlpLlu2TI86dXPz2Xe4TgvtyIyAETACRsAIzAgC2QRl48aNA6Jw5plnFps2bSp27949+F1yySUlgTjrrLOKP//8c05Rc8Mpkr4ISm4++w4nXOwaASNgBIyAEVhMCGQTlIMHDxZHjhyZR0AA54EHHihJymuvvTYHr9xwiqQvgpKbz77DCRe7RsAIGAEjYAQWEwLZBGUYCL/88ktJUNCsNJUm4foiKMPy3CSfVeH7DleVB98zAkbACBgBI7AQEBiboPzzn/8snnrqqWLnzp3FjTfeWP5kn/L3v/+9EofccEwZffnll+Xv22+/rYy/q5u5+ew7XFfldTxGwAgYASNgBGYBgWyC8sUXXxQXXXRRqSkRIUndm2++eU45c8PNiaSHf3Lz2Xe4HqBwEkbACBgBI2AEekcgi6Cw1Pfss88uycm5555b3HrrrYMlx/v37y/4iahs27atLFRuuDKCni5y89l3uJ7gcDJGwAgYASNgBHpHIIugsPeICAgGsan89ttv5fNIUHLDpfFP+v/cfPYdbtI4OH4jYASMgBEwAtNCIIug3H777SUBqdqQ7YMPPiifR4KSGy6Cc+rUqYI49asiSNF/znVuPvsOl1M2hzECRsAIGAEjsBAQyCIoGL5Kg8KuqamsW7eufB4JSm64GH8fq3hy89l3uIiLr42AETACRsAILCYEsggKe32IoGzYsKH4+uuvB5j897//LTCK1TPcSFByw0XA+yAoufnsO1zExddGwAgYASNgBBYTAlkEBRsTdomNRIQdZfV/fBYJSm64CHgfBCU3n32Hi7j42ggYASNgBIzAYkIgi6AAAFM7F154YUlKRE7OO++8gr1J/va3vw2epcuMc8MJ9JMnT85Jk9VEk5DcfPYdbhJld5xGwAgYASNgBKaNQDZBUcb//e9/F6+++mrx1ltvFf/5z390e6SbG25kxB17yM1n3+E6LrajMwJGwAgYASMwVQTGJihTzb0TNwJGwAgYASNgBBYlAiYoi7JaXSgjYASMgBEwAgsbAROUhV1/zr0RMAJGwAgYgUWJgAnKoqxWF8oIGAEjYASMwMJGwARlYdefc28EjIARMAJGYFEiYIKyKKvVhTICRsAIGAEjsLARMEFZ2PXn3BsBI2AEjIARWJQImKAsymp1oYyAETACRsAILGwETFAWdv1NJPe//PJLsWPHjuK2224r/vnPf04kjT4j5cTt77//vvj999/7THbRpvXnn38WP/zwQ1F1knmTQhO+jeSmlxuuTd668Nt3+1wouORi2zeeyifp/vjjj/rXbgcIZBGU/fv3F+eee275W7lyZbFly5biwQcfLF5//fWibQfUphzEzS6t/H799dc2QWfOL41ZOD7xxBMj8wdxkP99+/aN9J/r4bvvviuPE3j22Wdzo+k83IkTJ4qrrrqqWL169eD3zjvv1KaxZ8+eYu3ateWRCzqKgTOjbrnllol2JE899VRZTxdddFFtHhfSgw8++KDYunXrvDO4OHfrjjvuGLmL9OHDh4vLLrusrA+OxOD077rdp3PTyw3XRV3McvvsApc25cvFk7Pb1MfVuS+99NK86Kf1vvPhQ57PP//84q9//eug38S94IILikOHDpVj4e233172W/RhVcL4qb5tzZo1Ay/333//SDxSnHi3OLh3MUgWQaGDV4df5VJZnEkzCeHkZKX5/PPPTyKJ3uLki15l2bx588h0//Wvf5X+H3jggZH+cz3MGkF5//33B2RDWMl98cUXK4sIiZWfOve0004rPvvss8rw495Mz6g6fvz4uFFONfy77747Ek/O3uIgzyqBfNfVA33FqVOn5gTLTS833JzEM/6Z9fY5Li5ty5cBYRkEQl/XVnR/7969pX8upvW+816ffvrpQ/N73333DfIK8VD+cdO+B+2Lzq+TPwJec801c8Lp2SiXj9nFIGMTFL6C+PF1dMYZZ8wB88033+wco8VEUABHJz/TgEfJG2+8UeLL+UeTklkiKDfeeGNZ5vSlHEVQ+Irhy4ovLtrizp07i+XLl5fxcdBk19o+tGJpPtEwLGSJA9zGjRuLRx99dIDnc889V6xYsaIsL19udLRR/vGPf5TP6YAff/zx4rXXXivWrVtX3qfviJKbXm64mHbb64XQPsfBJad8bTGM/kVQGPjvvPPOyh+EKYoISp/vO1Pf8T1nBoF+hrzRxkVI7r777kFW9b/C6L7KwVl2eiaXZ7wrKQ433XRT6Zf+LH1+1113LZrp7LEJyhdffCGMB2olBgEBDHhdy2IjKJdccskAL4jKKKHhC9uUgY8K2+b5LBEU4YPaFJuYJ598ssSgjqBQ1mFfEEz9CEe0Ul3KM888U8aN6pV0zjnnnC6T6D0utKFoTTmlPBW0gJRPeH788cdzvEBo9IyBUgKRETnneYw7N73ccMpTjrsQ2uc4uOSWLwdLwoigNPlgi2n0/b5Hgg1hr5LHHnus0NR9SlCWLVs2J0iVpmSOh/AP74reKQjkYpZOCYqAuvrqq0sAqwYRXhjUdNddd13BXNv69euLXbt2FS+//PK8LzDifPvttwvsXvjt3r27jHvTpk3lfT1ncK2Sn3/+ucCeYvv27QUvHWkfOHCg+Omnn6q8l/ewc8GfflXzn6XnjIubb755UB4G4FHCPKYaZmrwmVs+GDoaMDDBPXr0aDFLBOXaa68t+NqgfAhtRBhUta1RGPL84MGDZRxoAboUdVx0QHRQymvd9MfTTz89aMN8eUG+H3nkkeLyyy8vGNhp03XtWXmGEOFPgz+2WdgnoZW44oorioceeqjWzkNxjOuSvsqJ/Y0E+xLdX7VqlW4P3PhVjx/m2ptKXXqjwueGGxbvtNpnl/3SMFzGLV/bfOYSlGF11PX7Hqfa03Zdlw8RFKZ/NS2ETQ9CX86UM+/BlVdeWb4zdXGZoNQh87/3ow1K1KAo2EcffVSCfOmll+r2wMXQTp1WlYvBbdopR8JTFSbeg8ykgjGlGkX0yzX333vvvTRI+T8DSwyTMt/SY+YFxEfxywIckqB7Uf2tr1EMPaPklA8jKtSSSie6Ik3cmyUjWcrcBUF5+OGHy3JD0LoSMJWhHIZzse3UGTWrY4LYVLVR7g1bSaV5a9LDLinWo66Je5ISiRiDgSS2Y83F8wyceI+UP1wGpqZSl96o8LnhRsUbn/fVPmPbAr9x+qU2uLQtX9t8ToKgdP2+s8JRbTe299gO0utIUHhXCc8HJ8LCEv5nxoHpYMWdxqH/TVCERI07iqAQTB11qt6OgywaEDQi/KRKpHJQ/UbbAL6UqVR+kazQmHVf7pdffjkn1+mXGmlilxAHZ/IaVcwxgrYvWAzb5DrOPcqYEm2SGikDmATyxn2wkuSWj+kSpQHe/H/DDTeU9aZni4mg8KVy7Nix8muFehcpFJ7juOpowA57IUTTGHUqaxEU4U2bZpoUraLu4aduxZoISmoLwnumTjH9SBinjFVheaeU1/j+xekuyIrk3nvvHfinXCJlaT8hv1VuXXpVfuO93HAxjlHXbQfwGF+b9tllv9QGl7bla5tPERTaBtoG3h+0FExl0Fe2kTZ4tol3w4YNZXtv2n/oXaRMaEt5X/ShKfwh8SYoc2tiIlM8JKGOmYYWBcZ55MiROQREz+MXYN2XbRsbFEiOOm4GIzQ7USAE6ljp0Kuk7QtWFcewe998802ZB5ZiIkx7KV+46vRlhAwZQ3LLx6qJSCDjKgq+1vWMtBc6QaFDhdQySMdyMTDSDruU66+/vqy33377bRB1NGiLOCtd3g/VNX6jMN2jZ1xXiQgK/igTy0mj0HZeeOGFeKvTa2xOlMeUZDBto2fKF1NQuke+MGzkf8rRRIalNyx8brhhcVY9azuA57bPrvqltri0LV/bfIqgqI2kLkt0h9mb5OJZVZd191h5pnzV+UnvR4LCM/XlkBX1S7yrJihzkZsYQYlLLev2Opiblf8xbFTFo1WpkjYEhQFI8TGVUiXS3NBIotZGftu+YArXxlUD1fI5DTr6uqQjJ29pWXLLh52A4qpaqo19jp4vdIIS1bEqE3h3bRxLfau+6GQlUatShXUkKKk9VFx6WGdwrrZC2aKWQulP0mWqJhrIplNRUdP6+eefD7KijlpawGiwXPX+xfyPSi/6jde54WIcTa/bDuC57bOLfikHl7bla5tP3h3eCWwxmALBLu7iiy8u+yPaOVPQdZKLZ118Vff1zvG+p4KWhxWD8YcmR+2ecRGhXJRFU50Y1CMmKAMYyj8TIyio5TQgVKnB6MwYKFFno77TT2GowCppQ1DiFxwaEhq2poLkatqEdKsGLTpNmK1+dVNBVXlteo/Bh/TJn15oXlKWi3GfvMZ5R6k6c8sXjW2ryGMkPgudoKCVou6xwxDOamNdli1q4zBMlTA1o/RQDaciglJnbMf+OISHVFWJOstxbBCq4m1yjylBle2ee+6ZFyTam/H+yFiRstDOERkVEw8d+TAZlV5d2NxwdfENu992AM9tn130Szm4tC1f23zSB0OcUsG2UB9ytBUZmKb+cvFM4xn2v95ZtCBRKKveh+iymVtKUD788MM5ftmkDTFBiYgWxcQICntMUElpx4pR7Sg1HuHqWHIbgqLOPTaWYdew3mmI7A3orLG3IY98YcrIEJUihrzKO9NCSG75GLCJK60blR3yqLS6HMQV/zhu2w4yTYuOQepVylhFStMwTf5nLwJhlsapzgm800FYnV3dFOMoMimCMmk7kxQDNJwqL+2XzjmV6AdSrbJGg2F9yPBsmMS46tKrCp8briquJvdmtX2mec/FZdzypflo8z8aZrU5Vh41kUm87/rQSfvPNgSFvGODovKcPHlyUBwTlLm1OjGCos4oftnxNSniQsWg1rr11lsHS45pcHG5m+ws5ma3GCzFVKVWqcyjfzpt+aVTHPWD/ExD1Cixl5FanA4kLtOMX5/KY275pFavGxRQxwu3xUZQwE5GapSRr8guJE51oJWLP70LpCftl9LUM+xXqiQaTEvrEP2JoPS5H0JceQb5qvriJY9xB1mRQjZzi2RGnT02a3XSNL00fG64NJ42/3cxgE+ifcYyjINLF+WLeWlzzd5P6pfavLdd4xn7XdmapeWQITj5rdKg4J/VRfT58eNEYwHh6iRq0/t87+vyM8n7EyEosEE1JOYPJewhovtVW7VT2XreBUFBC6P46lZBKG/TdCEB5JPBRrY7Gsg08Gl9fDREzC1fVO1WlTtqaxYjQaHMfP2Aed3UShUudfc0Lae2Nsxl2iOKCErdUmD27VF8VURABKXufYlpdXHNR4HyQ+daNUWodF555ZXSr8JE1TxEReWH0FVJm/Ri+NxwMY6c664G8C7bZyzHuLh0Vb6Yp6bXmAqoHbHHTxvpEs9o+K79h9K8NCEoaRj+N0GZi8pECEo0VIobMEV1dbolNtnC0l8NsK7DjateWMY4TOKXQrqCZ1i4+IyVF+RFvypiFf3nXMdyq/yyVI9kgmeotyW55WM5m9Kp2scmGtEOIyhsoEZd88OWqA/pooNkoFf50QCMK3G1DV80tPn0JwPadN5aAzSaxSqRtgsiUiV9EhSOVxBuaEarbMtiHrE7kX9cOt8osd2nxA1/bdNT3LnhFH4ct6/2mdMvdYFL2/Ll5LMO/7ilQrpVfF0Y7nf9vrPCVO2a7SqqxASlCpX29zonKOz/ILZK5xk1F7JcpnLZTTaVaDBXR1CYw1fjGDUoYgsgv1UGijH9qq9Tnqdfx3HKKoYf55qXWPnERe0t0dSOnsdOPrd8aGcUX9WLLrsA/AwjKIpDrvI8SbdJBwmecRohzU+cemBKbVyRjQk4xPYe44W4CCeWdkpEUHiWroKJX4xa9aJwcvsiKOwfo/wzd97UWFwaQcJqJY/yzjuuOLEViJKbXm64mPY41321z7b9Ule4NClfxK9NPuv6YMUXbRe1JQPP+n7fSVNTk4x1USuovJqgCInx3LEJCktgabR8MUaCQcfDDoVR4mALYZDNBw0zTlcQto6gEJ/ms+ncMWwdpmaOGgiWz2rLdOJhMKGhMyDXqdjbvGCxrG2v40AV5xXTr9CUMOSWTy8YWGtTMbRaEBYNGrhperFc0R/XkxIIFQbD/CClShfNje7TAUsgHbQR7HgY+NSBUZcxPPFwmN04EsnlMG1M/OrCrkQS6x3yK2M52nQkipryUzi5fRAUCJU+OsCMM6FYPl31S8+Iito49jyhDvjIiJu4pdqj3PRywwnLXHca7bNNvzQuLm3LF3Fsk08GddoCGkk+vpjyZ2xghZy2g6D94SeSmT7fd5UtmivwDjOOaGyhzJFM1dmgKK7oeoonotHBKh4NFtGlwpjrTIUGpw3c5D9aMsdnwwgKhzMpfOqy7XsUvkJlxyG/qNulcte9uKV8DN/mBYvh2l5rwyryk2KnQYhnGHxFyS1fPBmZeEkjDkLCpY6gQGbkR27MV5fXin+UqzRlaDzKP1OO4woEXekMm/6DDMsfthuSSFD0XARc/9dpT4hDbWPY+6K0cl3OC1JeRrlpPhhIeLfqwtHm0jadm15uuFxcFK6ubOl9+e+ifbbpl8bFJS1H3f8qX3Tb5DNqHerSoL2k0/Vd4Bnz3PSa7QTSfKZ9KOMMHxvSsmoflLo0TFDmIpOlQYlTNaogWC1aCACGMdYJUztR7avwWPejNlaHW7fMmHhR3/MFxiqgtINPCQr+6SRZBpo2HqWNIS8GfVUSDX7xn37tVYXJuRe38OeljhI1U3yxp5JbPrQOwltY8EJFdTBaryqJ+34Qtk4DVRW27T3lbZhL3Uqoy6o2pvAQ4a4OfWRnS8VbpepVnnDjV5U2ZVP7pb1ry2vFh8thbfFrMcbHtepv2PuShmn7PyQ15mnYdVU+0JhULYmnHtLBhrzlppcbri0eqf9heOhZ1+2zTb80Li4qwzA3li/i0yafaCFSch7T5BBNad1jGn2+7zFdrtHgMybEfOqad0Hafb37dcbgild7XxFHncTDXKtst+rCLcT7WQSli4Ky5TVGW6gPVYldxDssDogNUyao22nUzPn3lfawfHX1LLd8kMZDhw4VqXp+WL6Y0tOLiJvu/TEsbF/P0FpQx0wDsb8M0zlNbSf6yqMICl+BCO0R7RYkcTG1TcoG0UJbwrs37COmL+ynnc5CaJ/TwIgPNAxiaSd8SPAOg9UomSaeLGogz5As+tOqRSCj8u/n8xGYGkGZnxXfWUgIxDnhuI5/IZVhFvKaEpRZyJPzYASMgBGYBQRMUGahFhZYHlDZx+kytGGWPARMUPJwcygjYAQWPwImKIu/jjsvIVNBEBR+rCKy5CNggpKPnUMaASOwuBEwQVnc9evSzTgCMnKtOxxzxrPv7BkBI2AEJoaACcrEoHXERsAIGAEjYASMQC4CJii5yDmcETACRsAIGAEjMDEETFAmBq0jNgJGwAgYASNgBHIRMEHJRc7hjIARMAJGwAgYgYkh0DlBYYfMYTtfTqwkjniAANhzWvGePXtmcvO0vqqJHUpvu+22wU9nZPSV9mJMBzzZ1Tb9td2R1+1zMbYOl8kITAaBTggKB4Jdeumlc863YXUC27dzpLqlOQLsBsu+Ivya7J6YxvzDDz+UO7xSL0tVnnzyyRIH79MyfitgJ964c7Cu48GWTVJx+2yCkv0YASMAAmMRFA7/qzo/RJ0XLmcQWJojwFkTwi89NLBJLB4A/gclE5QmraW5H46IeOKJJ8qfNuozQWmOoX0aASPQDoGxCErc7pwDkzgmm7M2OOuGk2LpxExQ2lXIuAQFrQuHVPH78MMP2yW+iHyboEy2MnUaeFuC4vY52Xpx7EZgMSGQTVA4NVhf+ueff35RNc/PwWw5WoDFBHDbsoxLUNqmt1j9m6BMtmZzCcpkc+XYjYARWEwIZBMUHR8NSck5yZYwDz300GCKaN26dcWOHTsGJ+pig1ElEJ39+/cXECOmll5++eVi27ZtBVocduGs0xbkhlMeIF4cV759+/ZBWtddd11x4MCBAmPgUcKJrdiBcFLtmjVrivXr1xd33HFH8fHHH88J+vbbbw/KRvl2795dEj+mz7gXfxy1nconn3xSPP300/N+qOVHSV/1oHzwBQ1++rU1slQ8o9xRBAUtn3Dl9NFUcuu9bTjqjXygeYScooXkWHkOYOR+VX2neW37P+Xdu3dvQVtWu9y1a9fgnWp6CmsbgtK2ffLOUHZOOq+TH3/8saw/4k+lbT2k4f2/ETAC00cgi6Aw8Ep7ct5557UuBYOTwqfu6tWrKzvlM844YxBm8+bNxcUXX1wZ/tChQ/PykhuOiCBD6ojTfHL/vffem5eebjDw6pyVNCz/33333fI6MCau8lN1DzKTyoMPPliJxygj2T7rQXnmKPVYrmXLlulRp+4wggIxVh5WrVpVcFR6lNx6zwmnNgJJr2pr3OO4+a5k69atZdmFQXRXrlxZ+f6l6SuvTaZ42rbPCy+8cJBH3t062bdvX1mO1BA/px7q0vF9I2AEpodAFkHha0+dGhqBNsLArbDYqFx//fWDpaAQHd1nyigVEQ35YWBhGSmrh3QPP+kXYG64d999t4yX+NFmsHR3y5Yt5X3yzzRWKhAD5QkXzQlfqNiFUDbuxUP2WCGBNogfK58UFi2V7sut0oq8+eabg3yRtyuuuKIMP4yg9F0PwmjaBOWee+4p8UH7hjYuSm6954YTQYl1vnPnzkGb0T385KzoiuXSNZoZ4j3zzDMHbRqNHb9oT3bWWWcVdZpMxdOGoLRtn4899lhZR3UfAXqPyGuU3HqIcfjaCBiB2UAgi6DEJYeoYpsKnR7GtHSQDO4nTpwog0IsrrzyyrJjOnr0aPmMi0g07rzzzjnPGPjVmfP1FCUnHPlcsWJFmU/2gIhy/PjxMj06/CioljXosNQ6/brDL+QAFXuVjGuD0mQVzzTqQWWdJkHBcFvtBI1Ful9Pbr3nhgMTtRXyddNNNwmmgct0j/LLdRdy8ODB4siRI5UE5IEHHijTYwpsmLQhKDGeJu2T6RuVO8WEuCDpeg6Zk4xTD4rDrhEwArODQBZBYSMwdRBV0yp1xYuaF0hFKnHwQusQRUSDDj396mUOWvmhA46SE44OXPExDVIl+uKEaNExSmInz7LMttIHQZlGPQiHWMdg3NcUTySxkMpU00b+cus9NxxpRoKS2jWRR512vHz5ckE4MZepLrV7tCrDZJIEhXTXrl07yAvlj+8Xz9BkKp9xj5tx6mFYWf3MCBiB6SCQRVCwn1AH8corrzTO+QsvvFCGSzUdiuTcc88d+EGDEUVEA/uTVCAsyk+qmcgJd//995fxMZgxuGmKRS5z9UozGglfddVVg/sQl99//z3N6sj/+yAo06gHFZzBhi9g/aqmyOR3HDfaoESbJaYE0wFP6eTWe2440hVBYcqySrC5op3RniRM/TEl2vQXpxMVB3YtTAGigcCORD+1aQzPh8mkCUrU0qbGsuecc84AE/qKKOPUQ4zH10bACMwGAlkEJdpYtNESRM1LlS0FkMimhI47iogGHXaVqGPl6ypKTjgNCopzlMscu0Rz47magT4IyjTqQfj05UaCEuuPgZUphCrJrffccORBBCWdKlT+4rTUf/7zn8FtyEos06jraNP1mZj77AAAIABJREFUxRdfDPYmGhWmSsOpPOFOmqDw0aFyYlsl4WNAecdQNso49RDj8bURMAKzgUAWQTl27FjZSYxSBcdiYtSqzoW56Cqho5af+FxEg6WRVaIwdQSlTTiRJOKkExz1g1RIMNojXBwU9KyJ2wdBmUY9NCl7l35SgsJyWrURpg+qJLfec8ORBxEUjMWrBONq5ZvpMYQ2jh1W05+MpTG0lQ0YcaKBuPXWWwf2UNiS8VNaaAqHyaQJCmlrl2owkr0QZVYeWU0YZZx6iPH42ggYgdlAIIugRCM1OoWmEjvAaCAbw2t/FQhJlD4JSrRXaLt6QrYpdOA50gdBmUY95GAxTphIUB5++OFBVNEIu8roNLfec8ORKREUjHarhP13NCBrkK7y1+ReXLmFrVQqcap0FggKhvIqu4x2WX3EPfqJVMaphzQu/28EjMD0EcgiKMzhq6Ogs0i/ZOqKRSejDofOskpERLDxiKL7bTQhhM8JF/cHSVfwxDxVXdOxq4xRs1Llt+reN998U4Z/5plnqrwMvddklcQ06kGZPnXq1Bx7nqqBUn7HcSNBkSElaas9UEfp/iK59Z4bjvKJoKDZqJJoLFr1vM29OF1UZSTMijO13VEERZpCCHkbadI+FV80EoZcxtVzVe/GOPWgNO0aASMwOwhkERSyH+1QOIK9SiAyUVMSV3BUdWwYw9V1kBpY+iAocZ57w4YNVUUr76VftYcPHy7LUIcLgdMVG4oQw1phEJdQ6vkot8kAMI16UL5j2pQz11ZH8dW5VQQFv3GfDAbZuElbbr3nhiM/IihgkRKmuNy26n2pK3vdfQxf1baqds9Fi6PnowiKDI+xE6kzOq7KR5P2GcOJ8JMOhrzKn+xxot9x6iHG42sjYARmA4FsgsJAKtJAp4HtCGSEzorOA8NRVhmkqtioZmd+XV9yhNW8NvFpvl0wKa0+CAppsvJBnSFpsr+JhGkfiAgrL6pU83GFDzt3xs6U6bHLLrtszkZtileuysrgBY4xvPzUuU0HgL7rQfmdNkEhHxA/1S2GlVFy6z03XCQokLWTJ08OskOd076Uz3QlS8xz02uW4Cs+iLc0fJDsOD2Cn1EEJW54xzvA0nW0f/z0Tlflq2n7VNio1VHe0y0I5Bc3tx5iHL42AkZgNhDIJihkn/1HpOpV5yHLe/2fEpTPPvtszlcj/iMxIRyq6FQ0aPdFUPh61XJGlYV8pnmFbKTCl1zqj/zHwYiOtE4effTRciBR2nLT5dlxOab81LlxMO67HlTWWSAoDKBabQVW8UDL3HrPDRfbhOpNbV3/d6E9AX9sTNL3NU7VxmejCAoEKm3jym/cnDC3faq94MZ8kcarr74aH8+5zq2HOZH4HyNgBGYCgbEICiWgo+JrPCUmdCR0flpBEEvLV6LO21CnhkscHJ5WJepI6wZ2xcNeCFFywxEHX5asGqgqG+mh5q7bBwaNS9y2XvnDZdOtdKfcmGe0UMyxs8oiHcBSghK/imMaVdfUU5Q+60HpkmbMW53thfznunEKkqW1qaDJUr3iRjuq3HrPCaf6RYOhVSsRH6YJibcrYWqn6t1D28meNNoYjvyMEg4y5GiFlKjEgzvHaZ9KP2q8wGsUHjn1oLTsGgEjMDsIjE1QYlE+//zzwdQHgy9f6KOEQZzD75guwZCxzVz2qLi7fE6+GNAwLoWQYCvQdNqFqTA0KpQRXIhn1mSh1EPfuOXWe5twIiiceI3Qrt54442CpfxN21gOLrxvaCKYOppkOjl56ypMm3roKk3HYwSMQHcIdEpQusuWYzICSwOBlKAsjVK7lEbACBiB0QiYoIzGyD6MwMQQMEGZGLSO2AgYgQWOgAnKAq9AZ39hI2CCsrDrz7k3AkZgcgiYoEwOW8dsBEYiIKPUUYfzjYzIHoyAETACiwwBE5RFVqEujhEwAkbACBiBxYCACcpiqEWXwQgYASNgBIzAIkPABGWRVaiLYwSMgBEwAkZgMSBggrIYatFlMAJGwAgYASOwyBAwQZmRCuXUZHYNTX91pz7XZZtdNO+7775iz549gw3i6vz5fjMEjGcznOzLCBgBI9A1AlkEZf/+/YNt2NmKne2xq4SdKtlSGz+ce5Ie/lcVZrHdY7t1ys8vPZMoLWvdmSWc4NpG2h7G1ibuheiX3URpi/w45LGtGM+5iI2L59zY6v/jLCC9O3VuW/Jen5qfGAEjMIsIZBEUtuXWeSFV55xARuKBZ5wrsxQlPfPk+PHjtTCwBf4TTzxR/nROjAlKLWSNHnBir9pqPBSwUeCiKExQ5iI1Lp5zY6v/D0Kveqtz9+7dWx+BnxgBI7DgEeicoHCAWDx99MCBAwsepJwCcKpq2rHecccdjaPSAWxtCQpaAg564xcPbWuc8CLzOO6AajznNohx8ZwbW/1/Iii8BxzYWfV7//336yPwEyNgBBY8Ap0SFAZlTqfVwJyeLLzg0WpRALRGwgEVNdfnnHNO4xhyCUrjBJaIx74G1CUCZ9EXniIoq1evXirQupxGwAgkCHRGUDgRVQMxg/Fdd92VJDX3X07QffbZZ4vt27cXl1xySXHdddcVaFt++umnuR6T/9qGe/rppwtsZvjaonN95JFHissvv7zYuHHj4D4an0nIunXrBqRk2bJlxWOPPVaSlaa2OG0IyieffFJQzvRXd3IytjFgwkm2dQLZxA8/4k+lbT0oPBoJ6lm/SdgRcEK28r579+4S+02bNpX39byq/tvi+dxzzw3i5ZRr0lu7dm2xc+fOgrip79tvv71Ys2bNwK07OTgXT07KfuihhwrKRpvbsWNHcejQodqTwcGbqcR3331XVTLHpW3w/MSJE+X9cfEsI2pxYYLSAix7NQKLFIFOCAqDTrS3gHQMk3feeafQACwtg1zuv/fee5XBc8LprBM676o0ucfA0qWw8kM2JBj7MUipfPv27WuUlPLaZIrnwQcfLONXOrgMNlWiusJOqE7Ip+L64IMP5njLqQdFELEgfghc13L11VeXeVcZ6lwG31Ta4hntrWI6EHbKF+9BxlPJxROSF+OO12geqsiX8soHQZUoDlaBScbFU/G0cU1Q2qBlv0ZgcSIwNkH59NNPBxoQdWwskx0mfLnJLy5ffnSGW7ZsKe8zuKerg3LDiaAoTTo+vm7Xr19fpocfSFZX8vrrr5dxv/HGG4NoZZfTVGXdhqC8+eabA/zA8IorrijTriMoUaNTRwZZeQVm5DtKbj0ojj4ICiuiIIb84uBK3eu+3CotU1s8NeiDF+1Kda02h0aF6T39j+GtJBdPNCGKj/fl+uuvL2677bbivPPOK+9Th6kor20ISg6eaEL5KGjzQwMoEUHh3YRQg+mqVasKCPswzZ/C2zUCRmDhIzA2QVmxYkXZIfK1yDLEOuGZ/NOpsvdHFFa5qNNlCkaSG47wkaDcdNNNinLgMt2j9LjuShgsFO9vv/02iJa0de/UqVMjk2pDUGJkTVadRAPeFBPiYtBWXiFzknHqQXH0QVCUFu64NhNN8NSgf+WVVw6S/v7770v8GKARpnaE6WuvvTa4l4sn4WTrxXsUp2P++OOPgnworaNHjw7S0h/ltQ1BUVjcpnim9az8DHO3bt1aJiWCUuf/qquuKn755ZfSvy+MgBFYfAiMTVDSDoSvzzo5cuRI2XGinq4SVODEScdLR4zkhiNsJCipfQuduU6TXb58eVV2su6JXNDJSqJWpclyV8XRZIpHaeA2GVDxx1c9OFN+4ax40GipXtk/RDJOPSiOdOCaxBSP0sJtOqDGMPG6CZ4a9OO0CO0XDCPBU50ePHhwkEQunthTqX5YrZVKxBiNThTlddIEBZuazZs3t/qhqZHw7vDuQraw4eG054svvrgsN+WvKrvC2zUCRmDhI9AJQYlqZTrhOg0Bq3rUsaIhoYORql3uypUrSz8YACK54QgrgoJ6uEroRMkTA4qEzpEyNf3dcMMNClpELRDGixKmkFT2DRs26Hatq8FsUgQlbgyXqsw1HYENRZRx6kHxQIbQ0OiXTuXJX1dunwQlauFUfw888EBZlDPPPHPQBjDQRXLxfOGFF8q2hP1KlchgHY1llL4ISkwz55p3H1uuVLAZEvnjfYrao9Sv/zcCRmBhIzA2QcGmgo6ELxwNwMz7V4nIgPyNcqWNyQ1HHkRQ4pRRzBtfZ8qHVljEDlDPhrlxrp/9GuRXBEvpgRXPiP/333/X7UpXA9ykCApTTyontisS8qz8pwa949SD4u/b7ZOgsPpFkpIR7mtaRqQlF0+OMlAdVdnQkNall1468EP7j7JQCErMc3rNBm0qv8he6sf/GwEjsPARGJugaAqAAU+dMp2H5tkjROo0ec7gN+rH4ILkhiOsCAp2IVWya9eusrNDNY6gqq/aGKruXjRGlfaBMqINij/lhWep1iLN26QJCulhoExeyJe+ViPBwpYiyjj1EOPp87pPgvLkk0+WRdO78Oijj5b3UoKSiyfGsNQbP6agqgRCLj/xeV8EBU3ZZ5991uqHbVQTIV6VLWovm4S1HyNgBBYOAmMTlLjVPepXdRzYNqQdDlM6et5m1UxuOKpBpEDGimnVsCRaedIgnfpp+n+c+1ecdW40CKyKvw+CggGl8idCqYE12s8of+PUg+Lo251lgpKLJ1oD1VvdFAf1hx8ISRTVb9Vqu2jIG+1pYvimeLZ5F1SWUe+E8hGNvFm1ZjECRmBxItApQQEivmjU4aSdR9y3IV3BMwze3HDEKYLC12uVRGPRqudt7sVVQUzNYGOQ/kQ80oEjTUdLVav2zUj9xv+bGHXKfzQSxhgx2s9UnZ80Tj0oTeyTZG+Eq+kOPe/a/eabb8r2WFWmUek1wVNaibYalFw8IZN6x+o2ulOe0OBFkYavirB//PHHZbx1BKUpnpMkKHFp9t133x2L52sjYAQWEQKdExS+wjQI04nGDjTaN4wyFI3ajNxw1JMICnlJN2SLX2JtiUBVG5CNCWnVaYggLhpcGBDqRCsWsBNJV9nUheF+kwE1hockkB/SiXmTPU70O049KJ504Jr0Kh5sfYR3XFGj/Ixym+ApMtCWoOTiGTGsardMH6rM1G8UrZJDk5JKnDqqIyhN8ZQxNBrWpj9W/iDx3U/zyP/SDlHGw4cPV3nxPSNgBBYBAp0TFDCJyychCNGWIWpYWOqoTolwDOp0OKy4Sb/wcsNFgsJgePLkyUG1MQCTjjryUTYho+oazYDiGrYZW/z6xf6lTu65554yPrBgaSlfr/zQfNRJkwE1hmWXWOVbbro0NfrPrQfFEQdX0ps0QSFdEQjaAobXVeRL+UvdJngq/rYEhbRy8Yx7ndCO1CaY8okfCOAdJRqzo91DIBNxZRD1UkdQ8K/y5uAZ81J3fe+99w4MitFIQuKwb4O0oOETwSKPaEVHkZm6NHzfCBiB2UdgIgSFYkcjvcsuu6xEAq2F1MwaEOlQY6fK/RiGwLnhIkFReupg9X/VV2iZ4YYXsYMfNm0RlxunS0BjUqkmSnnFjVvPx+XC0U/VNatGqkTTSQrz6quvVnkb3MutB0U4DYKCoarKlrrpMt0cPNWecghKLp4Yisa2jQYsfYdYoZZK3IQPLAjHj2sZ8XI9jKC0wTNNv8n/EJS0ntL/yXObaeIm6dqPETACs4VAFkGJX2F1yxzpeGMH+vLLL5cl56uH1SLqGNPOh+mNV155pfSvi5xwygMGiVq1EtPDWLCLrzB2tlS8dYaLKkdUUaebx8kPLmepYMeTDjwffvhh6Y1Nv5TuKJev7iph6kNhwWsUHjn1oHTRYCkt3DrbIPnvwkVDgP0Je4OoPSgPKUHJwVMEJa7mEunDzkQiYh73x+FZLp5gqXOVVB5c3qu4bbzSl8u0a/ruQZbZk0bxSLuiMNFtg2cM1/QaLaowVX6iy2GfWuHXNE77MwJGYOEhkEVQuiqm5qmZ9oCQYCPSRP3eJpwGpFtuuWWQbeLnfJxjx441Sqursi7GeNrUw2Isf9dlysWTaVJW0DGws+yfeEYJ7wHGpnw4MI01i4K2jTzSN0Cq6B/qbLtmMf/OkxEwAuMhMFWCMl7Wm4VOCUqzUPZlBIyAETACRsAITBMBE5Rpou+0jYARMAJGwAgYgUoETFAqYfFNI2AEjIARMAJGYJoILHqCotOKMey1GAEjYASMgBEwAgsDgUVPUBZGNTiXRsAIGAEjYASMQETABCWi4WsjYASMgBEwAkZgJhAwQZmJanAmjIARMAJGwAgYgYiACUpEw9dGwAgYASNgBIzATCBggtJDNXAWETuUcmYKB7Lxizvr9pAFJ9EBAr/88kuxY8eOQf2lB0+m0bM77H333TfYMp7zZCztENi7d+8A52HHLrSLcTK+2W5f73Q8V2wyqQ2PtU37HB6TnxqB2UCgNUFhC2y2DG/zO++880Zunz4bcHSfCzrYdFtxtu3esmVL94n1ECNb7zepe/wtNuHoAW25/uyzzw4tXpNDBodGsMQfaqt7DhSdZeH8JbUJdvGdprRpn9PMp9M2Ak0RaE1QrrnmmvKF1IvZxIXdLzVhW24tcwajCy64oLjxxhsHPw6lW4iiM2ZG1Tn+Fpu0GQBMUMarfROU9vi1aZ/tY3cII9A/Aq0JCufmcNBf/N10000laVm+fPmcZ/i76667it9//73/0k05RU4d1kDO0fGLQURQOEIgtoH0ev/+/YuhuHPK0GYAgJxyQCW/eLjjnAj9Ty0CJii10NQ+aNM+ayPxAyMwQwi0JihVeY+noKIhsPwPAhxwJoKyWOwQRFD6OIV41tqRB4D+asQEpT3Wbp/tMXOI2UZgagTlmWeeKfjK5rRShPnbffv2FZdddlmB/QJH0qcnG3/66acFxnPMS69Zs6ZYv379wPAUg9M//vijEunnn39+kM4777xT/PbbbwPj1G3bthWXXHJJwe6yo75uv/jii2Lnzp3Fxo0bi4svvniQN8IdPXq00q5G6VE2woig3HvvvYN8cJ8fp89WCYZ22Dds3759kEfKeuDAgeKnn36q8l7ey8GzDNziIpegCJfceiCLGBs/9dRTBSdTq/7vuOOO4uOPP64tAcSQtrRp06Zi3bp1AyPXQ4cOjTzxF00h9ax2Qn2PGgA++eST4umnn573+/LLL2vzNy4u2DiBB/nEWPPNN98ctEvaA3mpSxsND+1KP8j0pKVN/UWC0ua9pRxPPPFE2a+kZaL98PzEiRNzHuXWwygbFNqR3nn6r1Ry3/ec9pmm7f+NwKwjMDWCItsMyMIDDzxQDuQa0HEZUCRbt26t9CP/K1euHAwg8i9XHd3mzZsHBEP+o8uAVSUMbNFfes3AkIrSS/2m/1cZyTJ4n3766ZVpcv+9995Lkyv/b4tnGbDlRS5BES459UAWGXh0MnWKJf/ffffd80rC4Fvll3urV6+ubC+svqFuqsIxXaP7VUayDz74YPlc/nAZFOskFxemTOvyefvtt5f5qMonefnqq69KP+Rx2bJldVns5H7b+svFReHqjGtVL3v27JlTLoVr2z6HEZTYf6xatapI7fBy3vdx2uecAvsfI7AAEJg6QVmxYkXZUbLaB60DgwcdyaWXXlpCKG3EmWeeOfga3r17d8GPL0d1Ogyef/75ZxmGC3U88kNHwZcmceseflINTLQfYWDcsGFDwQomOn+lyYCVCh0fpIufykE6DCa6j5t+saJJUn5w+eInrjgIsRqI6bQqEUFpimdVHE3uiaDgYgha96MjjZJbD8TBAB+xkeYM/M8///zBsxtuuCEmN8BXYcDt+uuvH9Q7bUz3CZsKbUPPKSP/E3e6Eqtq4Ed7QX3xQwuoeJoQFPlt2j4jCQFbtD20q5TEVeWTMvdJUHLqL7e9KFwuQWlbD3UE5Z577inrn/4CLVCU3Pd9nPYZ0/e1EVgICEydoNAhoB2AEERBNf3CCy+Ut9hH5MiRI/MICB6iBgbVZxR1WKSDIWeU+EXM10wUyIE6KwaeVJj6ef/999Pbc/5ncFAcTA/UCaRKxIKBkL0Vohw/fryMB6JWJSIoTfGsiqPJPREUlavOTTUaufWAClyDLmVM2wl5huwx9ScBT2xkyBt4RnU+RPTKK68s8WTqRnLq1KmSiJxzzjkF/0vY9ySSlLqBX/6bruLJwSXmE83Hjz/+qGQLphGa5LMvgpJTfxQmB5cYbhyC0qafqCIokTyiBU7Jeu77Hut93PZZNhhfGIEZRmAmCEocJHKwQnWqgRKtShR1dAxy6VcMNgMKBwGKwlezntVpLaL/quumBAXipbSYlqgSaW0YfFItEf4jQRkXz6r0dW9cgtK2HiL5xHagiUAchWeVlisOzmhjJPFLH5uEVBj0FG/XBKUNLjGfabslz2hSRuUzYoDfSU3x5NQfZch9bxUul6C0qQfymRKU+NHDx0SqmSVM7vse633c9kk+LEZg1hGYOkFp2zHyJcuLiuGq9hTBVYeMqjuKOiwMXFOBsChc/ALHH//rGWH/8Y9/zPsSSuNL/29KUJg6Ulp0anRycTqIa2xs5KdqRZAIShM8L7roooKpjqa/OH0iggKuaDPqfimpy62Hq666alBuiFnTpepo3oRVqhlTHbHZHH7QXEnil29qoI2fOLB0TVDatM9R+YSgqvx1+YTkoqXUL60vYTKum1N/pJnbXhQul6C0qQfyGQkKYYU7U8hVHxKEyX3fR9V7m/Y5br06vBHoA4GpE5RoZzKswEypMLCqA6hz0y9mdVgYv1WJ4kmN5lg1o0FffnCxW0DLkaptq+JuSlDIW0xj1HXVlJPy2gTPOAUwKi2VWeUTQWm7zDi3HmRj0oR4KY9sMa9y1a1ikQ0SX8wS2TmBT5VAjhVv3cCvcG2neNq0T01R1eWTKa2m+VR+J+Xm1B95yW0vCpdLUNrUA/mMBEWY4zJtHafeIr6573uX7TPmx9dGYFYRmDpBabJvCksiZVPAy8/X76233jrQcmgJnzoHtA1Rcjss4uCrks6EQUzxy6UDev3112NS866bEhQNlsTNUutRv6+//npeWiIoTfCEjKUbqw37H42VZFyC0nbgUHpVBq3KU+pGQ0KIQpWoswdzydq1awf1HEmLnuF+/vnnZTvomqC0wYWl+OS7Lp9x6nJUPmP5JnGdU3/kI/e97TtcSlBY/q4+gvZUJbnve5ftsypfvmcEZg2BqROUlFBUAYQRpF565rRTiVM1aXy5HVZMg3lkvp7ZEVfxkR9IwbBph6YEJc5bQ8ZyRAQlLX9OXMPCaMDJ1aC0GYjJh2xvIIRNBdKq9hINZGN4aeOoT0m0O9K96LLMW/GOGvjbalDa4BJ3bq6ycYgrREblM5ZvEtc59Uc+9J61wYVwrPKjjq699tp5xWHaTvWXakxz04sE5eGHHx6kKQ0XaVXtIJ37vnfZPueB4xtGYAYRWBAEJc69VnXI2EGo40kH6NyOZ1hdxeXDVZsvKWxTghL360hX8CiuUe5iJSjUp+q2SnNUhQsruRQmXc4t/2oX2PZI4tQQU4qpRCPFUQP/JAlK3F+jalUTg6LKX5dPVoSArX5VxD8tf87/OfVHOqqftgSF1S2UPe6hpHyzoZ9wmQRB0WGBYKv8kx4fN1Fy3/cu22fMj6+NwKwisCAICoav6liqCAGdkZ7TIUZRR9G2o4txpNfsXqr0UKfXSVOCgtGr4mO/lWFSZ/uyWAnK4cOHS2yqvoqFVdxpN65Q4Qs+lbfeequMM7aXeD9dJk0c7FGieqob+JXWJAlKtIVhv5woEHjOwxqVz4gRftvY+MT0Rl3n1B9x5r630tigSUklTv1NkqCQbtRioXWMm7Tlvu9dts8UG/9vBGYRgQVBUFhKqQ6XAVxf0gzWUV2KnzjgAHhuR8epzaTFlvSyxqfzZwmrbFIwUtSzqsptSlAIG9W3kCn2j5Aw7UNHzwBZ9WWIv74JimxwsMOp+r3xxhtzlljm1gNliyuY2FE4rrDBCBabjLjSiDBRzb5r164yL0z5kHe1JwbqKHFwpwwI9Q5hURjcaRIU8qSBmLxA4MHhs88+m7NB3LB89kVQyGtO/eW2l/gxw2oZhHc0ruwCl0kTFNJlpSFp8UuNb3Pf967a5wAY/zECM47AgiAo2JjI9kEvvOaa+T8+64qgsD+G0lIa6eoXjFmHSRuCgsW/1NNKl4E0DqbcZzCukr4JivI4zEXVLckdcAjPF2eKA/GJKJKHlKAwWMfn1F0aB1OHqUBKYpnANa13nqcE5cUXX5wTLsaRXsfBKhcXNHdpeZRO3C03zafK2ydByam/XFwgasIBl7pT/UVD+z4ICsRWq5jIS9y7JPd9z22fqne7RmAhIdAJQYmHqPGF20Q0oKbLguvCMrVz4YUXzul8eOnpjFltUxefiEw6gCkddWb62tL9xx57bKD21vPoMjDUbaim8LhR88NBaaMEjRCradShxjS5Zp+FV155pTKauvJXeh7jJlMBab7q/o+ajtx6UFbRKF199dWVafNVWbU53cmTJyvbDPhykF6dHDt2rGxPKht1zn39n26QFutafupctDuScXCh3aNRExEjj+w7EpcZo3mrErCJ+Wtr9FwV57B7betvHFywO0rfIfa7AS+VOX3fc9OLdklVdksQJuUFN/YDue97TvscVjd+ZgRmFYFOCEqfhcMQjRNcmY+NA+Ck8gD5Yj6ZTo+NkPgarLMD6SoPqKTp2DD2hJBgc9BHWbvK/yTjYdUUdcDACykBp1HC4MhUHWFoP8Om5WJckGIOkkQbM+sS99ygrBqIUwPNaZcjp/5y8sz7wnvLSed1S81z4p1EmNz3fSG1z0ng5jgXPwILjqAs/ipxCY3AeAhs3769JCgmtuNh6dBGwAhMDwETlOlh75SNQDYCHCCJ0TRTS7L1QTsRpxyGrXrKTtgBjYARMAI9IWCC0hPQTsYIdIlAnMZhOkd2KJrawR5l2AnaXebFcRkBI2AEJoGACcokUHWcRmDCCLDtPks4th3yAAAZE0lEQVSNZYApYoKxNJoTaVUmnA1HbwSMgBGYGAImKBOD1hEbgX4QYJM6DHnj3jn9pOxUjIARMAKTQ8AEZXLYOmYjYASMgBEwAkYgEwETlEzgHMwIGAEjYASMgBGYHAImKJPD1jEbASNgBIyAETACmQiYoGQC52BGwAgYASNgBIzA5BAwQZkcto7ZCBgBI2AEjIARyETABCUTOAczAkbACBgBI2AEJoeACcrksHXMRsAIGAEjYASMQCYCJiiZwDmYETACRsAIGAEjMDkETFAmh61jNgJGwAgYASNgBDIRMEHJBM7BjIARMAJGwAgYgckhYIIyOWwdsxEwAkbACBgBI5CJgAlKJnAOZgSMgBEwAkbACEwOAROUyWHrmI2AETACRsAIGIFMBExQMoFzMCNgBIyAETACRmByCJigTA5bx2wEjIARMAJGwAhkImCCkgmcgxkBI2AEjIARMAKTQ8AEZXLYOmYjYASMgBEwAkYgEwETlEzgHMwIGAEjYASMgBGYHAImKJPD1jEbASNgBIyAETACmQiYoGQC52BGwAgYASNgBIzA5BAwQZkcto7ZCBgBI2AEjIARyETABCUTOAczAkbACBgBI2AEJoeACcrksHXMRsAIGAEjYASMQCYCJiiZwDmYETACRsAIGAEjMDkETFAmh61jNgJGwAgYASNgBDIRMEHJBM7BjIARMAJGwAgYgckhYIIyOWwdsxEwAkbACBgBI5CJgAlKJnAOZgSMgBEwAkbACEwOAROUyWHrmI2AETACRsAIGIFMBExQMoFzMCNgBIyAETACRmByCJigTA5bx2wEjIARMAJGwAhkImCCkgmcgxkBI2AEjIARMAKTQ6ATgnLixIniqquuKlavXj34vfPOO5PLsWM2AkbACBgBI2AEFj0CYxGU999/v1i7dm3xl7/8Zc7vxRdfXPTAuYBGwAgYASNgBIzA5BDIJig33njjHFISSYoJyuQqzDEbASNgBIyAEVgKCGQTlEsuuWRAUP76178Wt912W/Hkk0+WhMUEZSk0HZfRCBgBI2AEjMDkEMgmKNdee21x9913Fz///PMgdy+//HIrgkK4Z599tti+fXsB2bnuuuuKAwcOFD/99NPkSuuYjYARMAJGwAgYgQWBQDZBSUvXhqBgRHv66aeXhCZOD3H/vffeS6P3/0bACBgBI2AEjMASQqB3gvLuu+/OISabNm0q9uzZU2zZsqW8z7TRt99+u4SqwUU1AkbACBgBI2AEIgK9EpQ///yzWLFixYCIQEI++uijmJfi+PHjJUnZuHHjnGf+xwgYASNgBIyAEVg6CPRKUI4cOVISEOxNqiQa30JoLEbACBgBI2AEjMDSQ6BXgnL//feXBAUNyc0331xs27Ztzm/lypWln3/9619Lr0ZcYiNgBIyAETACRqDolaBs3ry5JB/RMLbu+s0333QVGQEjYASMgBEwAksQgV4JyqWXXloSlH379hWjfl9//fUSrBIX2QgYASNgBIyAEeiVoDClI23Jr7/+avSNgBEwAkbACBgBI1CJQK8EBcNYEZR0BU9l7nzTCBgBI2AEjIARWJII9EpQMHoVQdmwYcNQwP/73/8Ofe6HRsAIGAEjYASMwOJFYCyC8tZbbxVHjx4d/Hbu3FmSjx07dpT3jx07Nge9G264ofTH9vbaKh9PTPscPny4WLVqVbFu3bo54fyPETACRsAIGAEjsHQQGIugSBsyyo1w/vjjj8U555xTkhTCsr19uvX9ZZddFoP52ggYASNgBIyAEVhCCEycoLBjbCpM39x5550Fz6rIzcUXX1y88soraTD/bwSMgBEwAkbACCwRBMYiKONixE6xX375ZfHaa68NCMk///nP4j//+c+40Tq8ETACRsAIGAEjsMARmCpBWeDYOftGwAgYASNgBIzAhBAwQZkQsI7WCBgBI2AEjIARyEfABCUfO4c0AkbACBgBI2AEJoSACcqEgHW0RsAIGAEjYASMQD4CJij52DmkETACRsAIGAEjMCEETFAmBKyjNQJGwAgYASNgBPIRMEHJx84hjYARMAJGwAgYgQkh0ClB4ayd66+/vjjvvPOKM844ozjttNOK999/f0JZd7RGwAgYASOwmBC49dZbB+PGsmXLipUrVxYPPvhgcerUqcVURJelBQKdEZTvvvuucmfYf/zjH3Oy8+STTxaPPPJI8fjjj8+5//rrrw/u8+z777+f82wp/NM3Ln2nt3fv3uK2224rXn311aVQnTNbxr7rve/0+ga+7/L1nV7Ek401f/jhh+KPP/6Ityuvc/MZz2rTLuNr1qypTMM3Fz8CnRGUe++9t9y2nm3sv/jii8GusDTqKHF7+3j/kksuKcO/++678dGSuO4bl77TQ6NGh8MBkZbpIdB3vfedXt/I9l2+LtI7ceJEcdVVVxWrV68e/N55551a2D744INi69atxVlnnVX2z7zH/H/HHXfU7vydm0+OQfnpp5+KDz/8sLjwwgvLNBlPLEsPgc4IypYtWwaNiWmdlJREWHMbboxjMV73jUvf6ZmgzEar7bve+06vb5T7Lt846THdvnbt2nLQl4bixRdfrISND0X5qXP/9re/FV999dW88OPkU5G99dZbZfpvvvmmbttdQgh0RlBQw9GIOal4mHTRcIfFv1Cf9Y1L3+mZoMxGy+y73vtOr2+U+y5fbno33nhjOdinZKMJQdm4cWPx6KOPFhCF5557rlixYkUZHzaH6bRPbj5j/X322WdlGgcPHoyPfL1EEOiMoGiK5txzzx0KXRcNd2gCC/Rh37j0nZ4Jymw0zL7rve/0+ka57/Llpqf+mfDYgmEjIqJSR1A+/fTT4pZbbim+/fbbebD+/vvvg49RxfHxxx/P8ZObzxgJB8kq/meeeSY+8vUSQWDBEJTnn3++2L9/f8F86W+//Va8/PLLxbZt2wpevL///e+DOcu6OuNFw0gT+wc0PevXry927do1iCNl/sTBFwJpcbry7t27B2rRnTt3FhgCo868/fbbB/Hg1p2+/PPPPxfPPvtssX379kEeSfvAgQOD+dWqfI77Qv/666+D+EmD30svvVSVTHkvNz3mpMFy1O/f//53mRYXkaBMuv5Ib5z2QniMeemcaV906Hw5Mj9OR/n0008PTuGeU8D//Ye5ctoKX5wXX3xxccUVVwza59GjRwfhq8K0bZ/EkVu+3HqvyneTe+Okl4OL8pRbf4v1vb322muLu+++u6B8CP2nBv86giIs61z6SMXx1FNPzfE2Tr0rIhMUIbF03c4IigyaJqVB0QC3efPmQcevFyO6hw4dmleTGHhFP+k1S9kgHlGUVuqXsrH8Ld5nAEsFEnX66afP8acw3H/vvffSIHNWQMWH+vIh/DDjYYiT0sAln8MktwOhk4vp1F2nnZ4w7aP+KHduenwZyp4qLRuEVPcgn6k89NBD5XP5iy6EJ5Wc9kkcueXLrfc0303/z00vF5dx6m8xv7dpfXVBUB577LGyvadTMLn1HvMZCQrTS5alh0AnBIWvd3XEVQN2hLWu4cqGhXiqBnB1yEpn1apVgy/bSy+9tEwbP6lGhC9Zwpx55pnFpk2bBhoRtCJx4MciPRr2xrTQtqQW7BiaYWujvLD0TpIalpHmnj175gx6YJCqTXNxUbpdEZRR9fDGG28ULAWs+mEwJ0xSDU7EFD+TrD8wyU0vkhDiQDuHpg7jb5UNNyUoaJb0HL8bNmwo7r///oG2TW3t5ptvVnWVbk77HKd847azMuMNL3LTy8Ult/4W+3ubVlcXBIW+TW0eMhElt95jHGinFf+6deviI18vEQQ6ISgMRmpIdObD5JdffhlMi+BGQX1Og+QXyYL8xAGHZcxR6PiVfrpkDmZ/5MiRyjgfeOCBMtxrr71WRqm0rrzyysE99mVR/HpR4sujsORbxmO8oB999FEZJxfHjx8v46EDjpKLi+JoS1DGTU/pyo0d/Pnnnz9vOkOYguOk64885aTHhlDqWNFA/fjjjypewXSDnlGGlKBAQtVGqlYcMPVTtWlhTvvMLR/huq73EqCai9z0cnDJrb+l+N6OS1CwOVF7r1oYkVvvaTPSRw/vHn2uZWkhkEVQsCFg3xMGGjQMaqgMCt98881EENSAw9cp6Uf55JNPyjykqsboL73mJVLe0apIlBaDjkSDE/YFEk3jKE2IkOLDDqRK9DVNfFVErCpMk3ttCUqTOJv6QRukjgQ31Q4RjzDto/5y02MeXfWnOo0YQL71PCUocYOpqvLHeJpe17XP3PI1TXfW/dXhklt/S/G9HYeg8DEZNcjY6k1KsLXSO0d/iy0f9oPctyx+BLIIStQoqPEwZ0zDnZRogMPwMBUIi/KB8WaV8BLRgUEwWHKnn8KhypcoLXa1lYiMoHWRMG1EeIzFEFT6ig8NCZodBrX4w+ZFfjgaoCuB7KBm1a+rQXJU/qhzlhmqTHV2MsK0j/ojzznpxemBqq81DF1VzpSg0O70jDKyg3Kb96FN+8wt36i6nMXnbXDJrb+l+N6OQ1AiGb/nnnsm3mzoJ9lUTu8XLv2oZfEjkEVQIAQM9AzqseGcffbZc9TiXcKnAQcjyypR441aD/yhWr/ooovmNG75jW60D1BaTzzxRJlUSkZ4QHmJQ6SFvMU4R11XTQWUCS6QC1YHqJzp8QWxCMK0j/oj3Zz0mNKjLGi3qoQdOFXWlKCw+6W0SPKDy3QX2rQ6spLTPnPLV1WmWb2Xg0tu/S3F9zaXoKBpVvtGe96lFriqLTJ9Lu01LnXMDrbp+1cV1vcWPgJZBCUtdmy0O3bsSB938r8GnLqt0vXSRIKC8a5IBM9ZhcNhVHztovWIy+Si7YzSYq8AiQhKtCZX3CIo0WB33759xajf119/regXpAshEe4QlWEiTPuoP/KRk95ll102KA/TUFUSpxKrOki0Vgx2hBcuctHAcd5UlNz2SRw55Ytpz/J1Li659bfU3lvqPoegQLTVnvkwrSPdXbYt9buk26XGucs8Oq7JIdAJQYlTPqNW8eQWJadDjsa7IhEx/Tg11AVBica6dLKLWaJRLFM8ozqrPusP3HPSu+mmm8oOOF0NRpyxzFUERfVNWKYm7rrrrjIfdLBoWFgGK8ltn4TPKZ/SnXU3F5fc+ltK763qvi1BibYgLASomgJV3F259KGREHUVr+NZOAh0QlAoLqpsGtOofVByocnpkOOcdNWAE5eGdkFQ4hdGuoInt9xNw7GCIdq6VBGypnGN8oemQNMZdUaxaRx91h9p56QX9zGhbaSCTZI6zGEEJQ0Xp0FZDSTJbZ+Ezymf0h3XZS8cNKX8otH4uPEqfC4uufW3VN5b4YvbhqCw6Z3afbq6LcbZ9XXcBwVttGXpIdAZQdHqlFkiKNjI6MWKA4OqmSXDet4FQUEFqfjYB2OYjNI4DAtb9ayvVTzkW2SUstYZxaZ5zBlQc+uPtHPSQ+uh+mOPhygQ3OXLl5fP2xAU5swVL9NEkr7Lp3THdVUWuePGl4bPxSW3/pbCe5ti3JSgHDt2rGy7TLf0ZXxPfiNB8Vb3aQ0ujf87Jyio/yYhOQMOS0XViUIYZPPBIBvVuvjpgqBQ7mjhjr2FtpbmGSrLw4cPDzYp034qXWHVF0EBJ2GKLQ9LPqt+qfFcn/UHpjnpEU5EmzIyUNJJcmgZW9ar3LgpQbnmmmsGm7O9/fbbpeEgpIa9T2STki4tz22f45Svi/YWceC6axkHl9z6W+zvLXXE6cCsROOH5kv1iCZM9yEkEvY6kYEqfrE5w46q6sc70rVgKK08mqB0je7CiK8zgiILegaGSUjOgIONSboLbDS6is+6Iihs7hX3COAFw0BSy5T1wmHQ16X0RVCi9kRlqXLrtrpvYySbW3/gmtNeCIeGI60rlS8up04JStwPCP+0rdi5cy9VU0+jfOO2OUiX8JA7bpxp+HFwya2/xf7egrHqa5Sr+uDMqVF+9Tz2nwo/rhun4F955ZVxo3P4BYhAZwSF1TFqrOnJll3gImLBl06VKG32NIjC1I7OCZIfXAabaEtRtcw4HoAlMsN8tUREhLnvKGho2MQuHaCUPvtkdP3CnTx5ssSfdFhhNAm54IIL5qSjMqUuho5R+qw/0s1Nj7C0CzRc0nxAWK666qoiLjNGExaFc0nSc5qECeFju4nhcton4ccpX0y/7XXcDZnyda0JVH5ycSF8Tv0RbjG/t5RP7XGYS58lgYQP8xufxf5T4cd16UOVBtN3lqWHQGcEhY2p1JhwIQCoW2dlaRin62LshZqzDwt0mpI2T2MtP4SEl6yvtBdbU55G/YFh3O6e6Ru18boOk4MnscuBoLFDKe2fgW+UTKt8o/KVPo+bmoHFpN/vcXFpW3+U1+9tWuv9/c/eU+xbpQ9C2hja0CbvUH+5dEp9IdAZQSHD7EGir0515HTqFiOwGBDYvn17SVCWKtGMNh7peVKzXseuv1mvobk2fIwhaKk9hsx+vU0qh50SFDIJ0+Wrh69INAfRSHRShXC8RqArBJjC4KRlDDVZuo2wd0k852XUpnRd5WXW4gGHOG3Jez5r4vqbtRpplx80chjhYn+iRQ3tYrDvxYRA5wRlMYHjsiw9BOI0Dl9wqUYQexKmcZaisFIDgsKvzhZs2ri4/qZdA07fCHSHgAlKd1g6pkWAwOeffz6wnYqaAogKG9KhOZFWZREUdVEWwfW3KKvVhVqiCJigLNGKd7FHI8ABgGgNPE05GqtZ9OH6m8VacZ6MQHMETFCaY2WfRsAIGAEjYASMQE8ImKD0BLSTMQJGwAgYASNgBJojYILSHCv7NAJGwAgYASNgBHpCoFOCkp6/0lMZnIwRMAJGwAgYASOwyBAYm6Cw5TfnyrDKgdUO7CDLIWtLdSOrRdY+XBwjYASMgBEwAlNBYCyCwrbEkJKqH4fKeUnmVOrUiRoBI2AEjIARWPAIZBOUePYO2hOO4mbnWA4PE2Hp+sTeBY+2C2AEjIARMAJGwAg0QiCboHAOh4gI29pLOI49HvTEyaIWI2AEjIARMAJGwAi0QSCLoGBfInLCuSVRICt6hsvppxYjYASMgBEwAkbACLRBIIugHD16tCQh9913X5keBwUuW7asfAZB4ehsixEwAkbACBgBI2AE2iCQRVCeeeaZkoRAViT33nvv4D4HrHGoGgSF47ItRsAIGAEjYASMgBFog0AWQWHaRtM4HIuNcPS67r3wwgvFBRdcMPgfA1qLETACRsAIGAEjYATaIJBFUG655ZaSjHB6KLJ69erBvUsuuWTw/9q1a0s/3sCtTZXYrxEwAkbACBgBI5BFULZu3VqSjy+//LI4ePDg4H+OqP/qq68GqMblxr///ruRNgJGwAgYASNgBIxAYwSyCMru3btLgvLWW28V2JwwvbNv374yYVb3cI9nFiNgBIyAETACRsAItEEgi6DEHWTPOOOMARFhi/s4lbN8+fLBffZEsRgBI2AEjIARMAJGoA0CWQTllVdeGZAPGcXinjhxokwXoiKtysqVK8v7vjACRsAIGAEjYASMQBMEsggKdieRnNxxxx1z0mJlj55jr2IxAkbACBgBI2AEjEAbBLIICglceOGFJQnRSh4lvG3btvLZhx9+qNt2jYARMAJGwAgYASPQCIFsgvLUU0+VJIQ9T1i9w2qduInb2Wef3SgT9mQEjIARMAJGwAgYgYhANkFhW3tOK9ZUTuqy5Pj999+PafnaCBgBI2AEjIARMAKNEMgmKMSOxmTz5s3zSAordz766KNGGbAnI2AEjIARMAJGwAikCIxFUBQZ2hS0Jazu+f7773XbrhEwAkbACBgBI2AEshDohKBkpexARsAIGAEjYASMgBGoQcAEpQYY3zYCRsAIGAEjYASmh4AJyvSwd8pGwAgYASNgBIxADQImKDXA+LYRMAJGwAgYASMwPQRMUKaHvVM2AkbACBgBI2AEahAwQakBxreNgBEwAkbACBiB6SFggjI97J2yETACRsAIGAEjUIOACUoNML5tBIyAETACRsAITA8BE5TpYe+UjYARMAJGwAgYgRoETFBqgPFtI2AEjIARMAJGYHoImKBMD3unbASMgBEwAkbACNQgYIJSA4xvGwEjYASMgBEwAtNDwARletg7ZSNgBIyAETACRqAGAROUGmB82wgYASNgBIyAEZgeAiYo08PeKRsBI2AEjIARMAI1CJig1ADj20bACBgBI2AEjMD0EDBBmR72TtkIGAEjYASMgBGoQcAEpQYY3zYCRsAIGAEjYASmh4AJyvSwd8pGwAgYASNgBIxADQImKDXA+LYRMAJGwAgYASMwPQRMUKaHvVM2AkbACBgBI2AEahAwQakBxreNgBEwAkbACBiB6SFggjI97J2yETACRsAIGAEjUIOACUoNML5tBIyAETACRsAITA8BE5TpYe+UjYARMAJGwAgYgRoETFBqgPFtI2AEjIARMAJGYHoImKBMD3unbASMgBEwAkbACNQgYIJSA4xvGwEjYASMgBEwAtNDwARletg7ZSNgBIyAETACRqAGAROUGmB82wgYASNgBIyAEZgeAiYo08PeKRsBI2AEjIARMAI1CPx/HRLqe6OKsmYAAAAASUVORK5CYII=;" vertex="1" parent="1">
                    <mxGeometry x="30" y="10" width="271.48" height="180" as="geometry"/>
                </mxCell>
                <mxCell id="5" value="" style="edgeStyle=none;html=1;" edge="1" parent="1" source="3" target="4">
                    <mxGeometry relative="1" as="geometry"/>
                </mxCell>
                <mxCell id="3" value="HTTP_VERSION" style="whiteSpace=wrap;html=1;" vertex="1" parent="1">
                    <mxGeometry x="30" y="280" width="120" height="60" as="geometry"/>
                </mxCell>
                <mxCell id="7" value="" style="edgeStyle=none;html=1;" edge="1" parent="1" source="4" target="6">
                    <mxGeometry relative="1" as="geometry"/>
                </mxCell>
                <mxCell id="4" value="HTTP_CODE" style="whiteSpace=wrap;html=1;" vertex="1" parent="1">
                    <mxGeometry x="190" y="280" width="120" height="60" as="geometry"/>
                </mxCell>
                <mxCell id="9" value="" style="edgeStyle=none;html=1;" edge="1" parent="1" source="6" target="8">
                    <mxGeometry relative="1" as="geometry"/>
                </mxCell>
                <mxCell id="6" value="HTTP_MSG" style="whiteSpace=wrap;html=1;" vertex="1" parent="1">
                    <mxGeometry x="340" y="280" width="120" height="60" as="geometry"/>
                </mxCell>
                <mxCell id="11" value="" style="edgeStyle=none;html=1;" edge="1" parent="1" source="8" target="10">
                    <mxGeometry relative="1" as="geometry"/>
                </mxCell>
                <mxCell id="8" value="HEADER" style="whiteSpace=wrap;html=1;" vertex="1" parent="1">
                    <mxGeometry x="480" y="280" width="120" height="60" as="geometry"/>
                </mxCell>
                <mxCell id="10" value="BODY" style="whiteSpace=wrap;html=1;" vertex="1" parent="1">
                    <mxGeometry x="620" y="280" width="120" height="60" as="geometry"/>
                </mxCell>
            </root>
        </mxGraphModel>
    </diagram>
</mxfile>